<svg width="112" height="56" viewBox="0 0 112 56" fill="none" xmlns="http://www.w3.org/2000/svg">
<g filter="url(#filter0_b_324_42)">
<mask id="path-1-inside-1_324_42" fill="white">
<path fill-rule="evenodd" clip-rule="evenodd" d="M24 0C10.7452 0 0 10.7452 0 24C0 37.2548 10.7452 48 24 48H40.917C43.9333 48 46.7553 49.4885 48.4585 51.9778C52.0874 57.2816 59.9126 57.2816 63.5415 51.9778C65.2447 49.4885 68.0667 48 71.083 48H88C101.255 48 112 37.2548 112 24C112 10.7452 101.255 0 88 0H24Z"/>
</mask>
<path fill-rule="evenodd" clip-rule="evenodd" d="M24 0C10.7452 0 0 10.7452 0 24C0 37.2548 10.7452 48 24 48H40.917C43.9333 48 46.7553 49.4885 48.4585 51.9778C52.0874 57.2816 59.9126 57.2816 63.5415 51.9778C65.2447 49.4885 68.0667 48 71.083 48H88C101.255 48 112 37.2548 112 24C112 10.7452 101.255 0 88 0H24Z" fill="white" fill-opacity="0.2"/>
<path d="M0.861538 24C0.861538 11.221 11.221 0.861538 24 0.861538V-0.861538C10.2694 -0.861538 -0.861538 10.2694 -0.861538 24H0.861538ZM24 47.1385C11.221 47.1385 0.861538 36.779 0.861538 24H-0.861538C-0.861538 37.7306 10.2694 48.8615 24 48.8615V47.1385ZM40.917 47.1385H24V48.8615H40.917V47.1385ZM88 47.1385H71.083V48.8615H88V47.1385ZM111.138 24C111.138 36.779 100.779 47.1385 88 47.1385V48.8615C101.731 48.8615 112.862 37.7306 112.862 24H111.138ZM88 0.861538C100.779 0.861538 111.138 11.221 111.138 24H112.862C112.862 10.2694 101.731 -0.861538 88 -0.861538V0.861538ZM24 0.861538H88V-0.861538H24V0.861538ZM64.2525 52.4643C65.7952 50.2097 68.3511 48.8615 71.083 48.8615V47.1385C67.7823 47.1385 64.6943 48.7673 62.8305 51.4913L64.2525 52.4643ZM47.7475 52.4643C51.7185 58.2682 60.2815 58.2682 64.2525 52.4643L62.8305 51.4913C59.5437 56.295 52.4563 56.295 49.1695 51.4913L47.7475 52.4643ZM40.917 48.8615C43.6489 48.8615 46.2048 50.2097 47.7475 52.4643L49.1695 51.4913C47.3057 48.7673 44.2177 47.1385 40.917 47.1385V48.8615Z" fill="white" fill-opacity="0.6" mask="url(#path-1-inside-1_324_42)"/>
</g>
<defs>
<filter id="filter0_b_324_42" x="-8" y="-8" width="128" height="71.9556" filterUnits="userSpaceOnUse" color-interpolation-filters="sRGB">
<feFlood flood-opacity="0" result="BackgroundImageFix"/>
<feGaussianBlur in="BackgroundImageFix" stdDeviation="4"/>
<feComposite in2="SourceAlpha" operator="in" result="effect1_backgroundBlur_324_42"/>
<feBlend mode="normal" in="SourceGraphic" in2="effect1_backgroundBlur_324_42" result="shape"/>
</filter>
</defs>
</svg>
