<svg width="25" height="25" viewBox="0 0 25 25" fill="none" xmlns="http://www.w3.org/2000/svg">
<path d="M22.1342 12.2102C22.1342 11.4411 21.5107 10.8176 20.7416 10.8176H13.7783V3.85427C13.7783 3.08512 13.1547 2.46161 12.3856 2.46161C11.6165 2.46161 10.9929 3.08512 10.9929 3.85427V10.8176H4.02965C3.26051 10.8176 2.63699 11.4411 2.63699 12.2102C2.63699 12.9794 3.26051 13.6029 4.02965 13.6029H10.9929V20.5662C10.9929 21.3353 11.6165 21.9588 12.3856 21.9588C13.1547 21.9588 13.7783 21.3353 13.7783 20.5662V13.6029H20.7416C21.5107 13.6029 22.1342 12.9794 22.1342 12.2102Z" fill="white"/>
</svg>
